<?xml version="1.0" standalone="yes"?>

<svg version="1.1" viewBox="0.0 0.0 627.0 691.0" fill="none" stroke="none" stroke-linecap="square" stroke-miterlimit="10" xmlns="http://www.w3.org/2000/svg" xmlns:xlink="http://www.w3.org/1999/xlink"><clipPath id="p.0"><path d="m0 0l627.0 0l0 691.0l-627.0 0l0 -691.0z" clip-rule="nonzero"></path></clipPath><g clip-path="url(#p.0)"><path fill="#000000" fill-opacity="0.0" d="m0 0l627.0236 0l0 691.8583l-627.0236 0z" fill-rule="nonzero"></path><path fill="#cfe2f3" d="m-1.695538 -2.9238846l640.94495 0l0 716.5984l-640.94495 0z" fill-rule="nonzero"></path><path fill="#ffd966" d="m417.85303 436.02887l0 0c0 -76.39795 61.93277 -138.33072 138.33069 -138.33072l0 0c36.687622 0 71.87256 14.574097 97.814575 40.516144c25.942078 25.942047 40.516174 61.126984 40.516174 97.814575l0 0c0 76.39795 -61.9328 138.33075 -138.33075 138.33075l0 0c-76.39792 0 -138.33069 -61.9328 -138.33069 -138.33075z" fill-rule="nonzero"></path><path stroke="#000000" stroke-width="2.0" stroke-linejoin="round" stroke-linecap="butt" d="m417.85303 436.02887l0 0c0 -76.39795 61.93277 -138.33072 138.33069 -138.33072l0 0c36.687622 0 71.87256 14.574097 97.814575 40.516144c25.942078 25.942047 40.516174 61.126984 40.516174 97.814575l0 0c0 76.39795 -61.9328 138.33075 -138.33075 138.33075l0 0c-76.39792 0 -138.33069 -61.9328 -138.33069 -138.33075z" fill-rule="nonzero"></path><path fill="#ffffff" d="m514.67194 440.86353l0 0c0 -14.23764 11.54187 -25.779541 25.77948 -25.779541l0 0c6.837158 0 13.394287 2.7160645 18.228882 7.550659c4.8345947 4.8345947 7.550659 11.391724 7.550659 18.228882l0 0c0 14.23764 -11.54187 25.77951 -25.779541 25.77951l0 0c-14.23761 0 -25.77948 -11.54187 -25.77948 -25.77951z" fill-rule="nonzero"></path><path stroke="#000000" stroke-width="2.0" stroke-linejoin="round" stroke-linecap="butt" d="m514.67194 440.86353l0 0c0 -14.23764 11.54187 -25.779541 25.77948 -25.779541l0 0c6.837158 0 13.394287 2.7160645 18.228882 7.550659c4.8345947 4.8345947 7.550659 11.391724 7.550659 18.228882l0 0c0 14.23764 -11.54187 25.77951 -25.779541 25.77951l0 0c-14.23761 0 -25.77948 -11.54187 -25.77948 -25.77951z" fill-rule="nonzero"></path><path fill="#ffffff" d="m454.90552 425.71915l0 0c0 -14.23764 11.54187 -25.77951 25.77951 -25.77951l0 0c6.837158 0 13.394287 2.716034 18.228882 7.550659c4.8345947 4.8345947 7.550659 11.391724 7.550659 18.228851l0 0c0 14.23764 -11.541901 25.779541 -25.779541 25.779541l0 0c-14.23764 0 -25.77951 -11.541901 -25.77951 -25.779541z" fill-rule="nonzero"></path><path stroke="#000000" stroke-width="2.0" stroke-linejoin="round" stroke-linecap="butt" d="m454.90552 425.71915l0 0c0 -14.23764 11.54187 -25.77951 25.77951 -25.77951l0 0c6.837158 0 13.394287 2.716034 18.228882 7.550659c4.8345947 4.8345947 7.550659 11.391724 7.550659 18.228851l0 0c0 14.23764 -11.541901 25.779541 -25.779541 25.779541l0 0c-14.23764 0 -25.77951 -11.541901 -25.77951 -25.779541z" fill-rule="nonzero"></path><path fill="#000000" d="m470.3701 436.02887l0 0c0 -5.696808 4.618164 -10.314972 10.314941 -10.314972l0 0c2.7357178 0 5.3593445 1.0867615 7.2937927 3.0212097c1.9344177 1.9344177 3.0211792 4.558075 3.0211792 7.293762l0 0c0 5.696808 -4.618164 10.314972 -10.314972 10.314972l0 0c-5.6967773 0 -10.314941 -4.618164 -10.314941 -10.314972z" fill-rule="nonzero"></path><path stroke="#000000" stroke-width="2.0" stroke-linejoin="round" stroke-linecap="butt" d="m470.3701 436.02887l0 0c0 -5.696808 4.618164 -10.314972 10.314941 -10.314972l0 0c2.7357178 0 5.3593445 1.0867615 7.2937927 3.0212097c1.9344177 1.9344177 3.0211792 4.558075 3.0211792 7.293762l0 0c0 5.696808 -4.618164 10.314972 -10.314972 10.314972l0 0c-5.6967773 0 -10.314941 -4.618164 -10.314941 -10.314972z" fill-rule="nonzero"></path><path fill="#000000" d="m522.4042 448.05774l0 0c0 -5.6967773 4.618164 -10.314972 10.315002 -10.314972l0 0c2.7356567 0 5.359314 1.0867615 7.293762 3.0212097c1.9344482 1.9344177 3.0211792 4.558075 3.0211792 7.293762l0 0c0 5.696808 -4.618164 10.314972 -10.314941 10.314972l0 0c-5.6968384 0 -10.315002 -4.618164 -10.315002 -10.314972z" fill-rule="nonzero"></path><path stroke="#000000" stroke-width="2.0" stroke-linejoin="round" stroke-linecap="butt" d="m522.4042 448.05774l0 0c0 -5.6967773 4.618164 -10.314972 10.315002 -10.314972l0 0c2.7356567 0 5.359314 1.0867615 7.293762 3.0212097c1.9344482 1.9344177 3.0211792 4.558075 3.0211792 7.293762l0 0c0 5.696808 -4.618164 10.314972 -10.314941 10.314972l0 0c-5.6968384 0 -10.315002 -4.618164 -10.315002 -10.314972z" fill-rule="nonzero"></path><path fill="#6d9eeb" d="m-66.69423 414.19424l0 0c0 -76.39795 61.932774 -138.33072 138.33072 -138.33072l0 0c36.687584 0 71.87254 14.574066 97.814575 40.516113c25.942047 25.942047 40.51613 61.127014 40.51613 97.814606l0 0c0 76.39792 -61.93277 138.33072 -138.3307 138.33072l0 0c-76.39795 0 -138.33072 -61.9328 -138.33072 -138.33072z" fill-rule="nonzero"></path><path stroke="#000000" stroke-width="2.0" stroke-linejoin="round" stroke-linecap="butt" d="m-66.69423 414.19424l0 0c0 -76.39795 61.932774 -138.33072 138.33072 -138.33072l0 0c36.687584 0 71.87254 14.574066 97.814575 40.516113c25.942047 25.942047 40.51613 61.127014 40.51613 97.814606l0 0c0 76.39792 -61.93277 138.33072 -138.3307 138.33072l0 0c-76.39795 0 -138.33072 -61.9328 -138.33072 -138.33072z" fill-rule="nonzero"></path><path fill="#ffffff" d="m22.124672 403.02887l0 0c0 -14.23764 11.541889 -25.779541 25.779526 -25.779541l0 0c6.837158 0 13.3942795 2.7160645 18.228882 7.550659c4.8345947 4.8345947 7.550644 11.391724 7.550644 18.228882l0 0c0 14.23764 -11.541885 25.779541 -25.779526 25.779541l0 0c-14.237637 0 -25.779526 -11.541901 -25.779526 -25.779541z" fill-rule="nonzero"></path><path stroke="#000000" stroke-width="2.0" stroke-linejoin="round" stroke-linecap="butt" d="m22.124672 403.02887l0 0c0 -14.23764 11.541889 -25.779541 25.779526 -25.779541l0 0c6.837158 0 13.3942795 2.7160645 18.228882 7.550659c4.8345947 4.8345947 7.550644 11.391724 7.550644 18.228882l0 0c0 14.23764 -11.541885 25.779541 -25.779526 25.779541l0 0c-14.237637 0 -25.779526 -11.541901 -25.779526 -25.779541z" fill-rule="nonzero"></path><path fill="#ffffff" d="m98.26903 400.71915l0 0c0 -14.23764 11.541885 -25.77951 25.779526 -25.77951l0 0c6.837158 0 13.394287 2.716034 18.228882 7.550659c4.8345947 4.8345947 7.550644 11.391724 7.550644 18.228851l0 0c0 14.23764 -11.541885 25.779541 -25.779526 25.779541l0 0c-14.23764 0 -25.779526 -11.541901 -25.779526 -25.779541z" fill-rule="nonzero"></path><path stroke="#000000" stroke-width="2.0" stroke-linejoin="round" stroke-linecap="butt" d="m98.26903 400.71915l0 0c0 -14.23764 11.541885 -25.77951 25.779526 -25.77951l0 0c6.837158 0 13.394287 2.716034 18.228882 7.550659c4.8345947 4.8345947 7.550644 11.391724 7.550644 18.228851l0 0c0 14.23764 -11.541885 25.779541 -25.779526 25.779541l0 0c-14.23764 0 -25.779526 -11.541901 -25.779526 -25.779541z" fill-rule="nonzero"></path><path fill="#000000" d="m113.7336 411.02887l0 0c0 -5.696808 4.618164 -10.314972 10.314957 -10.314972l0 0c2.7357025 0 5.3593445 1.0867615 7.2937775 3.0212097c1.934433 1.9344177 3.0211792 4.558075 3.0211792 7.293762l0 0c0 5.696808 -4.618164 10.314972 -10.314957 10.314972l0 0c-5.6967926 0 -10.314957 -4.618164 -10.314957 -10.314972z" fill-rule="nonzero"></path><path stroke="#000000" stroke-width="2.0" stroke-linejoin="round" stroke-linecap="butt" d="m113.7336 411.02887l0 0c0 -5.696808 4.618164 -10.314972 10.314957 -10.314972l0 0c2.7357025 0 5.3593445 1.0867615 7.2937775 3.0212097c1.934433 1.9344177 3.0211792 4.558075 3.0211792 7.293762l0 0c0 5.696808 -4.618164 10.314972 -10.314957 10.314972l0 0c-5.6967926 0 -10.314957 -4.618164 -10.314957 -10.314972z" fill-rule="nonzero"></path><path fill="#000000" d="m45.32152 414.1942l0 0c0 -5.6967773 4.618164 -10.314941 10.3149605 -10.314941l0 0c2.7356987 0 5.3593483 1.086731 7.2937775 3.0211792c1.934433 1.9344177 3.0211868 4.558075 3.0211868 7.293762l0 0c0 5.696808 -4.618168 10.314972 -10.314964 10.314972l0 0c-5.6967964 0 -10.3149605 -4.618164 -10.3149605 -10.314972z" fill-rule="nonzero"></path><path stroke="#000000" stroke-width="2.0" stroke-linejoin="round" stroke-linecap="butt" d="m45.32152 414.1942l0 0c0 -5.6967773 4.618164 -10.314941 10.3149605 -10.314941l0 0c2.7356987 0 5.3593483 1.086731 7.2937775 3.0211792c1.934433 1.9344177 3.0211868 4.558075 3.0211868 7.293762l0 0c0 5.696808 -4.618168 10.314972 -10.314964 10.314972l0 0c-5.6967964 0 -10.3149605 -4.618164 -10.3149605 -10.314972z" fill-rule="nonzero"></path><path fill="#93c47d" d="m-26.01181 621.2336l0 0c0 -94.61029 76.69679 -171.30707 171.30708 -171.30707l0 0c45.43347 0 89.0061 18.04837 121.1324 50.174683c32.126312 32.12628 50.174683 75.69891 50.174683 121.132385l0 0c0 94.61029 -76.69678 171.30713 -171.30708 171.30713l0 0c-94.61029 0 -171.30708 -76.69684 -171.30708 -171.30713z" fill-rule="nonzero"></path><path stroke="#000000" stroke-width="2.0" stroke-linejoin="round" stroke-linecap="butt" d="m-26.01181 621.2336l0 0c0 -94.61029 76.69679 -171.30707 171.30708 -171.30707l0 0c45.43347 0 89.0061 18.04837 121.1324 50.174683c32.126312 32.12628 50.174683 75.69891 50.174683 121.132385l0 0c0 94.61029 -76.69678 171.30713 -171.30708 171.30713l0 0c-94.61029 0 -171.30708 -76.69684 -171.30708 -171.30713z" fill-rule="nonzero"></path><path fill="#ffffff" d="m64.3614 562.35114l0 0c0 -17.638306 14.298691 -31.937012 31.937012 -31.937012l0 0c8.470222 0 16.593521 3.3648071 22.582878 9.354126c5.9893494 5.98938 9.354126 14.112671 9.354126 22.582886l0 0c0 17.638306 -14.298683 31.937012 -31.937004 31.937012l0 0c-17.63832 0 -31.937012 -14.298706 -31.937012 -31.937012z" fill-rule="nonzero"></path><path stroke="#000000" stroke-width="2.0" stroke-linejoin="round" stroke-linecap="butt" d="m64.3614 562.35114l0 0c0 -17.638306 14.298691 -31.937012 31.937012 -31.937012l0 0c8.470222 0 16.593521 3.3648071 22.582878 9.354126c5.9893494 5.98938 9.354126 14.112671 9.354126 22.582886l0 0c0 17.638306 -14.298683 31.937012 -31.937004 31.937012l0 0c-17.63832 0 -31.937012 -14.298706 -31.937012 -31.937012z" fill-rule="nonzero"></path><path fill="#ffffff" d="m155.44843 554.3503l0 0c0 -17.638306 14.298676 -31.937012 31.936996 -31.937012l0 0c8.47023 0 16.593536 3.364746 22.582886 9.354126c5.9893494 5.98938 9.354126 14.112671 9.354126 22.582886l0 0c0 17.638306 -14.298676 31.937012 -31.937012 31.937012l0 0c-17.63832 0 -31.936996 -14.298706 -31.936996 -31.937012z" fill-rule="nonzero"></path><path stroke="#000000" stroke-width="2.0" stroke-linejoin="round" stroke-linecap="butt" d="m155.44843 554.3503l0 0c0 -17.638306 14.298676 -31.937012 31.936996 -31.937012l0 0c8.47023 0 16.593536 3.364746 22.582886 9.354126c5.9893494 5.98938 9.354126 14.112671 9.354126 22.582886l0 0c0 17.638306 -14.298676 31.937012 -31.937012 31.937012l0 0c-17.63832 0 -31.936996 -14.298706 -31.936996 -31.937012z" fill-rule="nonzero"></path><path fill="#000000" d="m179.67667 563.6841l0 0c0 -7.053589 5.7180786 -12.7716675 12.7716675 -12.7716675l0 0c3.3872528 0 6.6357727 1.345581 9.030914 3.7407837c2.3951569 2.3951416 3.740738 5.6436157 3.740738 9.030884l0 0c0 7.053589 -5.7180634 12.7716675 -12.771652 12.7716675l0 0c-7.053589 0 -12.7716675 -5.7180786 -12.7716675 -12.7716675z" fill-rule="nonzero"></path><path stroke="#000000" stroke-width="2.0" stroke-linejoin="round" stroke-linecap="butt" d="m179.67667 563.6841l0 0c0 -7.053589 5.7180786 -12.7716675 12.7716675 -12.7716675l0 0c3.3872528 0 6.6357727 1.345581 9.030914 3.7407837c2.3951569 2.3951416 3.740738 5.6436157 3.740738 9.030884l0 0c0 7.053589 -5.7180634 12.7716675 -12.771652 12.7716675l0 0c-7.053589 0 -12.7716675 -5.7180786 -12.7716675 -12.7716675z" fill-rule="nonzero"></path><path fill="#000000" d="m95.958374 573.29584l0 0c0 -7.053589 5.7180634 -12.7716675 12.771652 -12.7716675l0 0c3.3872528 0 6.6357727 1.345581 9.030922 3.7407837c2.3951492 2.3951416 3.7407303 5.6436157 3.7407303 9.030884l0 0c0 7.053589 -5.7180634 12.7716675 -12.771652 12.7716675l0 0c-7.053589 0 -12.771652 -5.7180786 -12.771652 -12.7716675z" fill-rule="nonzero"></path><path stroke="#000000" stroke-width="2.0" stroke-linejoin="round" stroke-linecap="butt" d="m95.958374 573.29584l0 0c0 -7.053589 5.7180634 -12.7716675 12.771652 -12.7716675l0 0c3.3872528 0 6.6357727 1.345581 9.030922 3.7407837c2.3951492 2.3951416 3.7407303 5.6436157 3.7407303 9.030884l0 0c0 7.053589 -5.7180634 12.7716675 -12.771652 12.7716675l0 0c-7.053589 0 -12.771652 -5.7180786 -12.771652 -12.7716675z" fill-rule="nonzero"></path><path fill="#000000" fill-opacity="0.0" d="m15.2021 10.771653l607.14966 0l0 461.44882l-607.14966 0z" fill-rule="nonzero"></path><path fill="#000000" d="m46.599163 51.124775l6.453125 -21.390623l6.515625 0l-9.90625 28.437498l-6.109375 0l-9.859375 -28.437498l6.5 0l6.40625 21.390623zm21.230473 7.046875l-5.656254 0l0 -21.140625l5.656254 0l0 21.140625zm-6.000004 -26.609373q0 -1.265625 0.84375 -2.078125q0.859375 -0.828125 2.3281288 -0.828125q1.4375 0 2.296875 0.828125q0.859375 0.8125 0.859375 2.078125q0 1.2968731 -0.875 2.124998q-0.859375 0.8125 -2.28125 0.8125q-1.4218788 0 -2.2968788 -0.8125q-0.875 -0.828125 -0.875 -2.124998zm26.113285 7.781248q2.25 -2.703125 5.65625 -2.703125q6.875 0 6.96875 8.0l0 13.53125l-5.640625 0l0 -13.375q0 -1.828125 -0.78125 -2.6875q-0.78125 -0.875 -2.609375 -0.875q-2.46875 0 -3.59375 1.921875l0 15.015625l-5.640625 0l0 -29.999998l5.640625 0l0 11.171873zm29.132812 18.828125q-0.390625 -0.765625 -0.578125 -1.890625q-2.046875 2.28125 -5.328125 2.28125q-3.109375 0 -5.15625 -1.796875q-2.03125 -1.796875 -2.03125 -4.53125q0 -3.359375 2.484375 -5.15625q2.5 -1.796875 7.203125 -1.8125l2.59375 0l0 -1.21875q0 -1.46875 -0.75 -2.34375q-0.75 -0.875 -2.375 -0.875q-1.421875 0 -2.234375 0.6875q-0.8125 0.671875 -0.8125 1.875l-5.640625 0q0 -1.84375 1.125 -3.40625q1.140625 -1.5625 3.203125 -2.453125q2.078125 -0.890625 4.65625 -0.890625q3.90625 0 6.203125 1.96875q2.296875 1.96875 2.296875 5.515625l0 9.15625q0.015625 3.015625 0.84375 4.5625l0 0.328125l-5.703125 0zm-4.671875 -3.921875q1.25 0 2.296875 -0.5625q1.0625 -0.5625 1.5625 -1.5l0 -3.625l-2.109375 0q-4.234375 0 -4.5 2.921875l-0.03125 0.34375q0 1.046875 0.734375 1.734375q0.75 0.6875 2.046875 0.6875zm25.742188 -11.921875q-1.15625 -0.15625 -2.03125 -0.15625q-3.203125 0 -4.203125 2.171875l0 13.828125l-5.640625 0l0 -21.140625l5.328125 0l0.15625 2.53125q1.703125 -2.921875 4.703125 -2.921875q0.9375 0 1.765625 0.265625l-0.078125 5.421875zm18.628906 15.84375l-5.65625 0l0 -21.140625l5.65625 0l0 21.140625zm-6.0 -26.609373q0 -1.265625 0.84375 -2.078125q0.859375 -0.828125 2.328125 -0.828125q1.4375 0 2.296875 0.828125q0.859375 0.8125 0.859375 2.078125q0 1.2968731 -0.875 2.124998q-0.859375 0.8125 -2.28125 0.8125q-1.421875 0 -2.296875 -0.8125q-0.875 -0.828125 -0.875 -2.124998zm15.839844 5.468748l0.1875 2.453125q2.265625 -2.84375 6.0625 -2.84375q3.359375 0 5.0 1.984375q1.640625 1.96875 1.6875 5.890625l0 13.65625l-5.640625 0l0 -13.515625q0 -1.796875 -0.78125 -2.609375q-0.78125 -0.8125 -2.609375 -0.8125q-2.375 0 -3.5625 2.03125l0 14.90625l-5.65625 0l0 -21.140625l5.3125 0zm25.121094 14.25l3.921875 -14.25l5.90625 0l-7.125 21.140625l-5.390625 0l-7.140625 -21.140625l5.90625 0l3.921875 14.25zm24.558594 6.890625q-0.390625 -0.765625 -0.578125 -1.890625q-2.046875 2.28125 -5.328125 2.28125q-3.109375 0 -5.15625 -1.796875q-2.03125 -1.796875 -2.03125 -4.53125q0 -3.359375 2.484375 -5.15625q2.5 -1.796875 7.203125 -1.8125l2.59375 0l0 -1.21875q0 -1.46875 -0.75 -2.34375q-0.75 -0.875 -2.375 -0.875q-1.421875 0 -2.234375 0.6875q-0.8125 0.671875 -0.8125 1.875l-5.640625 0q0 -1.84375 1.125 -3.40625q1.140625 -1.5625 3.203125 -2.453125q2.078125 -0.890625 4.65625 -0.890625q3.90625 0 6.203125 1.96875q2.296875 1.96875 2.296875 5.515625l0 9.15625q0.015625 3.015625 0.84375 4.5625l0 0.328125l-5.703125 0zm-4.671875 -3.921875q1.25 0 2.296875 -0.5625q1.0625 -0.5625 1.5625 -1.5l0 -3.625l-2.109375 0q-4.234375 0 -4.5 2.921875l-0.03125 0.34375q0 1.046875 0.734375 1.734375q0.75 0.6875 2.046875 0.6875zm12.9921875 -6.796875q0 -4.953125 2.203125 -7.875q2.21875 -2.9375 6.078125 -2.9375q3.078125 0 5.09375 2.3125l0 -10.781248l5.65625 0l0 29.999998l-5.09375 0l-0.265625 -2.25q-2.109375 2.640625 -5.4375 2.640625q-3.734375 0 -5.984375 -2.9375q-2.25 -2.9375 -2.25 -8.171875zm5.640625 0.40625q0 2.96875 1.03125 4.546875q1.03125 1.578125 3.015625 1.578125q2.609375 0 3.6875 -2.203125l0 -8.34375q-1.0625 -2.203125 -3.65625 -2.203125q-4.078125 0 -4.078125 6.625zm27.492172 10.703125q-4.6406097 0 -7.5624847 -2.84375q-2.921875 -2.859375 -2.921875 -7.609375l0 -0.546875q0 -3.1875 1.234375 -5.6875q1.234375 -2.515625 3.484375 -3.875q2.25 -1.359375 5.1406097 -1.359375q4.34375 0 6.828125 2.734375q2.5 2.734375 2.5 7.765625l0 2.296875l-13.468735 0q0.28125 2.078125 1.65625 3.328125q1.3749847 1.25 3.4843597 1.25q3.265625 0 5.09375 -2.375l2.78125 3.109375q-1.265625 1.796875 -3.4375 2.8125q-2.171875 1.0 -4.8125 1.0zm-0.640625 -17.34375q-1.6718597 0 -2.7187347 1.140625q-1.046875 1.125 -1.34375 3.234375l7.8593597 0l0 -0.453125q-0.046875 -1.875 -1.03125 -2.890625q-0.96875 -1.03125 -2.765625 -1.03125zm24.417969 1.109375q-1.15625 -0.15625 -2.03125 -0.15625q-3.203125 0 -4.203125 2.171875l0 13.828125l-5.640625 0l0 -21.140625l5.328125 0l0.15625 2.53125q1.703125 -2.921875 4.703125 -2.921875q0.9375 0 1.765625 0.265625l-0.078125 5.421875zm12.433594 16.234375q-4.640625 0 -7.5625 -2.84375q-2.921875 -2.859375 -2.921875 -7.609375l0 -0.546875q0 -3.1875 1.234375 -5.6875q1.234375 -2.515625 3.484375 -3.875q2.25 -1.359375 5.140625 -1.359375q4.34375 0 6.828125 2.734375q2.5 2.734375 2.5 7.765625l0 2.296875l-13.46875 0q0.28125 2.078125 1.65625 3.328125q1.375 1.25 3.484375 1.25q3.265625 0 5.09375 -2.375l2.78125 3.109375q-1.265625 1.796875 -3.4375 2.8125q-2.171875 1.0 -4.8125 1.0zm-0.640625 -17.34375q-1.671875 0 -2.71875 1.140625q-1.046875 1.125 -1.34375 3.234375l7.859375 0l0 -0.453125q-0.046875 -1.875 -1.03125 -2.890625q-0.96875 -1.03125 -2.765625 -1.03125zm19.292969 -9.374998l0 5.187498l3.625 0l0 4.140625l-3.625 0l0 10.546875q0 1.171875 0.453125 1.6875q0.453125 0.5 1.71875 0.5q0.9375 0 1.65625 -0.125l0 4.265625q-1.65625 0.515625 -3.40625 0.515625q-5.9375 0 -6.0625 -6.0l0 -11.390625l-3.078125 0l0 -4.140625l3.078125 0l0 -5.187498l5.640625 0zm35.773438 15.953123q0 5.078125 -2.171875 7.921875q-2.171875 2.84375 -6.0625 2.84375q-3.4375 0 -5.484375 -2.640625l-0.25 2.25l-5.078125 0l0 -29.999998l5.640625 0l0 10.765623q1.953125 -2.296875 5.140625 -2.296875q3.859375 0 6.0625 2.84375q2.203125 2.84375 2.203125 8.0l0 0.3125zm-5.65625 -0.40625q0 -3.203125 -1.015625 -4.671875q-1.015625 -1.484375 -3.015625 -1.484375q-2.703125 0 -3.71875 2.203125l0 8.34375q1.03125 2.234375 3.75 2.234375q2.734375 0 3.59375 -2.703125q0.40625 -1.28125 0.40625 -3.921875zm21.785156 8.625q-2.09375 2.546875 -5.78125 2.546875q-3.40625 0 -5.1875 -1.953125q-1.78125 -1.953125 -1.828125 -5.71875l0 -13.859375l5.640625 0l0 13.65625q0 3.296875 3.015625 3.296875q2.875 0 3.9375 -1.984375l0 -14.96875l5.671875 0l0 21.140625l-5.3125 0l-0.15625 -2.15625zm21.164062 -3.6875q0 -1.03125 -1.03125 -1.625q-1.015625 -0.59375 -3.28125 -1.0625q-7.53125 -1.59375 -7.53125 -6.40625q0 -2.8125 2.328125 -4.703125q2.328125 -1.890625 6.109375 -1.890625q4.015625 0 6.421875 1.90625q2.421875 1.890625 2.421875 4.921875l-5.640625 0q0 -1.21875 -0.78125 -2.0q-0.78125 -0.796875 -2.453125 -0.796875q-1.421875 0 -2.203125 0.640625q-0.78125 0.640625 -0.78125 1.640625q0 0.9375 0.890625 1.515625q0.890625 0.578125 3.0 1.0q2.109375 0.421875 3.546875 0.9375q4.484375 1.640625 4.484375 5.6875q0 2.890625 -2.484375 4.6875q-2.484375 1.78125 -6.40625 1.78125q-2.65625 0 -4.71875 -0.9375q-2.0625 -0.953125 -3.234375 -2.609375q-1.171875 -1.65625 -1.171875 -3.5625l5.359375 0q0.078125 1.5 1.109375 2.3125q1.03125 0.796875 2.765625 0.796875q1.625 0 2.453125 -0.609375q0.828125 -0.625 0.828125 -1.625zm20.566406 0q0 -1.03125 -1.03125 -1.625q-1.015625 -0.59375 -3.28125 -1.0625q-7.53125 -1.59375 -7.53125 -6.40625q0 -2.8125 2.328125 -4.703125q2.328125 -1.890625 6.109375 -1.890625q4.015625 0 6.421875 1.90625q2.421875 1.890625 2.421875 4.921875l-5.640625 0q0 -1.21875 -0.78125 -2.0q-0.78125 -0.796875 -2.453125 -0.796875q-1.421875 0 -2.203125 0.640625q-0.78125 0.640625 -0.78125 1.640625q0 0.9375 0.890625 1.515625q0.890625 0.578125 3.0 1.0q2.109375 0.421875 3.546875 0.9375q4.484375 1.640625 4.484375 5.6875q0 2.890625 -2.484375 4.6875q-2.484375 1.78125 -6.40625 1.78125q-2.65625 0 -4.71875 -0.9375q-2.0625 -0.953125 -3.234375 -2.609375q-1.171875 -1.65625 -1.171875 -3.5625l5.359375 0q0.078125 1.5 1.109375 2.3125q1.03125 0.796875 2.765625 0.796875q1.625 0 2.453125 -0.609375q0.828125 -0.625 0.828125 -1.625zm15.878906 -20.484373l0 5.187498l3.625 0l0 4.140625l-3.625 0l0 10.546875q0 1.171875 0.453125 1.6875q0.453125 0.5 1.71875 0.5q0.9375 0 1.65625 -0.125l0 4.265625q-1.65625 0.515625 -3.40625 0.515625q-5.9375 0 -6.0625 -6.0l0 -11.390625l-3.078125 0l0 -4.140625l3.078125 0l0 -5.187498l5.640625 0zm5.890625 15.562498q0 -3.140625 1.203125 -5.59375q1.21875 -2.46875 3.484375 -3.8125q2.28125 -1.359375 5.28125 -1.359375q4.28125 0 6.984375 2.625q2.703125 2.609375 3.015625 7.109375l0.046875 1.4375q0 4.875 -2.71875 7.8125q-2.71875 2.9375 -7.296875 2.9375q-4.5625 0 -7.28125 -2.921875q-2.71875 -2.9375 -2.71875 -7.984375l0 -0.25zm5.640625 0.40625q0 3.015625 1.125 4.609375q1.140625 1.59375 3.25 1.59375q2.046875 0 3.203125 -1.578125q1.15625 -1.578125 1.15625 -5.03125q0 -2.953125 -1.15625 -4.5625q-1.15625 -1.625 -3.25 -1.625q-2.0625 0 -3.203125 1.609375q-1.125 1.609375 -1.125 4.984375zm36.867188 -0.015625q0 4.890625 -2.21875 7.828125q-2.203125 2.9375 -5.984375 2.9375q-3.203125 0 -5.171875 -2.234375l0 9.968754l-5.640625 0l0 -29.265629l5.234375 0l0.1875 2.078125q2.0625 -2.46875 5.359375 -2.46875q3.90625 0 6.0625 2.890625q2.171875 2.890625 2.171875 7.96875l0 0.296875zm-5.640625 -0.40625q0 -2.953125 -1.046875 -4.546875q-1.046875 -1.609375 -3.03125 -1.609375q-2.65625 0 -3.65625 2.03125l0 8.65625q1.03125 2.09375 3.6875 2.09375q4.046875 0 4.046875 -6.625zm28.160156 0.40625q0 4.890625 -2.21875 7.828125q-2.203125 2.9375 -5.984375 2.9375q-3.203125 0 -5.171875 -2.234375l0 9.968754l-5.640625 0l0 -29.265629l5.234375 0l0.1875 2.078125q2.0625 -2.46875 5.359375 -2.46875q3.90625 0 6.0625 2.890625q2.171875 2.890625 2.171875 7.96875l0 0.296875zm-5.640625 -0.40625q0 -2.953125 -1.046875 -4.546875q-1.046875 -1.609375 -3.03125 -1.609375q-2.65625 0 -3.65625 2.03125l0 8.65625q1.03125 2.09375 3.6875 2.09375q4.046875 0 4.046875 -6.625zm18.863281 11.171875q-4.640625 0 -7.5625 -2.84375q-2.921875 -2.859375 -2.921875 -7.609375l0 -0.546875q0 -3.1875 1.234375 -5.6875q1.234375 -2.515625 3.484375 -3.875q2.25 -1.359375 5.140625 -1.359375q4.34375 0 6.8281555 2.734375q2.5 2.734375 2.5 7.765625l0 2.296875l-13.4687805 0q0.28125 2.078125 1.65625 3.328125q1.375 1.25 3.484375 1.25q3.265625 0 5.09375 -2.375l2.7812805 3.109375q-1.265625 1.796875 -3.4375305 2.8125q-2.171875 1.0 -4.8125 1.0zm-0.640625 -17.34375q-1.671875 0 -2.71875 1.140625q-1.046875 1.125 -1.34375 3.234375l7.859375 0l0 -0.453125q-0.046875 -1.875 -1.03125 -2.890625q-0.96875 -1.03125 -2.765625 -1.03125zm23.9805 11.109375q0 -1.03125 -1.03125 -1.625q-1.015625 -0.59375 -3.28125 -1.0625q-7.53125 -1.59375 -7.53125 -6.40625q0 -2.8125 2.328125 -4.703125q2.328125 -1.890625 6.109375 -1.890625q4.015625 0 6.421875 1.90625q2.421875 1.890625 2.421875 4.921875l-5.640625 0q0 -1.21875 -0.78125 -2.0q-0.78125 -0.796875 -2.453125 -0.796875q-1.421875 0 -2.203125 0.640625q-0.78125 0.640625 -0.78125 1.640625q0 0.9375 0.890625 1.515625q0.890625 0.578125 3.0 1.0q2.109375 0.421875 3.546875 0.9375q4.484375 1.640625 4.484375 5.6875q0 2.890625 -2.484375 4.6875q-2.484375 1.78125 -6.40625 1.78125q-2.65625 0 -4.71875 -0.9375q-2.0625 -0.953125 -3.234375 -2.609375q-1.171875 -1.65625 -1.171875 -3.5625l5.359375 0q0.078125 1.5 1.109375 2.3125q1.03125 0.796875 2.765625 0.796875q1.625 0 2.453125 -0.609375q0.828125 -0.625 0.828125 -1.625zm15.878906 -20.484373l0 5.187498l3.625 0l0 4.140625l-3.625 0l0 10.546875q0 1.171875 0.453125 1.6875q0.453125 0.5 1.71875 0.5q0.9375 0 1.65625 -0.125l0 4.265625q-1.65625 0.515625 -3.40625 0.515625q-5.9375 0 -6.0625 -6.0l0 -11.390625l-3.078125 0l0 -4.140625l3.078125 0l0 -5.187498l5.640625 0zm16.484375 26.718748q-4.640625 0 -7.5625 -2.84375q-2.921875 -2.859375 -2.921875 -7.609375l0 -0.546875q0 -3.1875 1.234375 -5.6875q1.234375 -2.515625 3.484375 -3.875q2.25 -1.359375 5.140625 -1.359375q4.34375 0 6.828125 2.734375q2.5 2.734375 2.5 7.765625l0 2.296875l-13.46875 0q0.28125 2.078125 1.65625 3.328125q1.375 1.25 3.484375 1.25q3.265625 0 5.09375 -2.375l2.78125 3.109375q-1.265625 1.796875 -3.4375 2.8125q-2.171875 1.0 -4.8125 1.0zm-0.640625 -17.34375q-1.671875 0 -2.71875 1.140625q-1.046875 1.125 -1.34375 3.234375l7.859375 0l0 -0.453125q-0.046875 -1.875 -1.03125 -2.890625q-0.96875 -1.03125 -2.765625 -1.03125zm11.667969 6.234375q0 -4.953125 2.203125 -7.875q2.21875 -2.9375 6.078125 -2.9375q3.078125 0 5.09375 2.3125l0 -10.781248l5.65625 0l0 29.999998l-5.09375 0l-0.265625 -2.25q-2.109375 2.640625 -5.4375 2.640625q-3.734375 0 -5.984375 -2.9375q-2.25 -2.9375 -2.25 -8.171875zm5.640625 0.40625q0 2.96875 1.03125 4.546875q1.03125 1.578125 3.015625 1.578125q2.609375 0 3.6875 -2.203125l0 -8.34375q-1.0625 -2.203125 -3.65625 -2.203125q-4.078125 0 -4.078125 6.625zm19.242188 17.437504l-2.953125 -1.5312538l0.703125 -1.28125q1.3125 -2.375 1.34375 -4.75l0 -4.375l4.765625 0l-0.015625 3.90625q-0.015625 2.171875 -1.09375 4.375q-1.078125 2.21875 -2.75 3.6562538z" fill-rule="nonzero"></path><path fill="#000000" d="m134.6226 79.84352l0 5.1875l3.625 0l0 4.140625l-3.625 0l0 10.546875q0 1.171875 0.453125 1.6875q0.453125 0.5 1.71875 0.5q0.9375 0 1.65625 -0.125l0 4.265625q-1.65625 0.515625 -3.40625 0.515625q-5.9375 0 -6.0625 -6.0l0 -11.390625l-3.078125 0l0 -4.140625l3.078125 0l0 -5.1875l5.640625 0zm19.015625 26.328125q-0.390625 -0.765625 -0.578125 -1.890625q-2.046875 2.28125 -5.328125 2.28125q-3.109375 0 -5.15625 -1.796875q-2.03125 -1.796875 -2.03125 -4.53125q0 -3.359375 2.484375 -5.15625q2.5 -1.796875 7.203125 -1.8125l2.59375 0l0 -1.21875q0 -1.46875 -0.75 -2.34375q-0.75 -0.875 -2.375 -0.875q-1.421875 0 -2.234375 0.6875q-0.8125 0.671875 -0.8125 1.875l-5.640625 0q0 -1.84375 1.125 -3.40625q1.140625 -1.5625 3.203125 -2.453125q2.078125 -0.890625 4.65625 -0.890625q3.90625 0 6.203125 1.96875q2.296875 1.96875 2.296875 5.515625l0 9.15625q0.015625 3.015625 0.84375 4.5625l0 0.328125l-5.703125 0zm-4.671875 -3.921875q1.25 0 2.296875 -0.5625q1.0625 -0.5625 1.5625 -1.5l0 -3.625l-2.109375 0q-4.234375 0 -4.5 2.921875l-0.03125 0.34375q0 1.046875 0.734375 1.734375q0.75 0.6875 2.046875 0.6875zm21.539062 -4.5625l-2.03125 2.03125l0 6.453125l-5.640625 0l0 -30.0l5.640625 0l0 16.625l1.09375 -1.40625l5.40625 -6.359375l6.78125 0l-7.640625 8.8125l8.3125 12.328125l-6.484375 0l-5.4375 -8.484375zm25.203125 8.484375l0 -17.0l-3.15625 0l0 -4.140625l3.15625 0l0 -1.796875q0 -3.546875 2.03125 -5.5q2.046875 -1.96875 5.71875 -1.96875q1.171875 0 2.875 0.390625l-0.0625 4.375q-0.703125 -0.1875 -1.71875 -0.1875q-3.1875 0 -3.1875 3.0l0 1.6875l4.203125 0l0 4.140625l-4.203125 0l0 17.0l-5.65625 0zm11.9140625 -10.765625q0 -3.140625 1.203125 -5.59375q1.21875 -2.46875 3.484375 -3.8125q2.28125 -1.359375 5.28125 -1.359375q4.28125 0 6.984375 2.625q2.703125 2.609375 3.015625 7.109375l0.046875 1.4375q0 4.875 -2.71875 7.8125q-2.71875 2.9375 -7.296875 2.9375q-4.5625 0 -7.28125 -2.921875q-2.71875 -2.9375 -2.71875 -7.984375l0 -0.25zm5.640625 0.40625q0 3.015625 1.125 4.609375q1.140625 1.59375 3.25 1.59375q2.046875 0 3.203125 -1.578125q1.15625 -1.578125 1.15625 -5.03125q0 -2.953125 -1.15625 -4.5625q-1.15625 -1.625 -3.25 -1.625q-2.0625 0 -3.203125 1.609375q-1.125 1.609375 -1.125 4.984375zm29.726562 -5.484375q-1.15625 -0.15625 -2.03125 -0.15625q-3.203125 0 -4.203125 2.171875l0 13.828125l-5.640625 0l0 -21.140625l5.328125 0l0.15625 2.53125q1.703125 -2.921875 4.703125 -2.921875q0.9375 0 1.765625 0.265625l-0.078125 5.421875zm1.8398438 5.125q0 -4.953125 2.203125 -7.875q2.21875 -2.9375 6.078125 -2.9375q3.0781097 0 5.0937347 2.3125l0 -10.78125l5.65625 0l0 30.0l-5.09375 0l-0.265625 -2.25q-2.109375 2.640625 -5.4374847 2.640625q-3.734375 0 -5.984375 -2.9375q-2.25 -2.9375 -2.25 -8.171875zm5.640625 0.40625q0 2.96875 1.03125 4.546875q1.03125 1.578125 3.015625 1.578125q2.6093597 0 3.6874847 -2.203125l0 -8.34375q-1.0625 -2.203125 -3.6562347 -2.203125q-4.078125 0 -4.078125 6.625zm23.726547 10.3125l-5.65625 0l0 -21.140625l5.65625 0l0 21.140625zm-6.0 -26.609375q0 -1.265625 0.84375 -2.078125q0.859375 -0.828125 2.328125 -0.828125q1.4375 0 2.296875 0.828125q0.859375 0.8125 0.859375 2.078125q0 1.296875 -0.875 2.125q-0.859375 0.8125 -2.28125 0.8125q-1.421875 0 -2.296875 -0.8125q-0.875 -0.828125 -0.875 -2.125zm32.86328 26.609375q-0.390625 -0.765625 -0.578125 -1.890625q-2.046875 2.28125 -5.328125 2.28125q-3.109375 0 -5.15625 -1.796875q-2.03125 -1.796875 -2.03125 -4.53125q0 -3.359375 2.484375 -5.15625q2.5 -1.796875 7.203125 -1.8125l2.59375 0l0 -1.21875q0 -1.46875 -0.75 -2.34375q-0.75 -0.875 -2.375 -0.875q-1.421875 0 -2.234375 0.6875q-0.8125 0.671875 -0.8125 1.875l-5.640625 0q0 -1.84375 1.125 -3.40625q1.140625 -1.5625 3.203125 -2.453125q2.078125 -0.890625 4.65625 -0.890625q3.90625 0 6.203125 1.96875q2.296875 1.96875 2.296875 5.515625l0 9.15625q0.015625 3.015625 0.84375 4.5625l0 0.328125l-5.703125 0zm-4.671875 -3.921875q1.25 0 2.296875 -0.5625q1.0625 -0.5625 1.5625 -1.5l0 -3.625l-2.109375 0q-4.234375 0 -4.5 2.921875l-0.03125 0.34375q0 1.046875 0.734375 1.734375q0.75 0.6875 2.046875 0.6875zm20.617188 -22.40625l0 5.1875l3.625 0l0 4.140625l-3.625 0l0 10.546875q0 1.171875 0.453125 1.6875q0.453125 0.5 1.71875 0.5q0.9375 0 1.65625 -0.125l0 4.265625q-1.65625 0.515625 -3.40625 0.515625q-5.9375 0 -6.0625 -6.0l0 -11.390625l-3.078125 0l0 -4.140625l3.078125 0l0 -5.1875l5.640625 0zm22.679688 26.328125l-5.65625 0l0 -21.140625l5.65625 0l0 21.140625zm-6.0 -26.609375q0 -1.265625 0.84375 -2.078125q0.859375 -0.828125 2.328125 -0.828125q1.4375 0 2.296875 0.828125q0.859375 0.8125 0.859375 2.078125q0 1.296875 -0.875 2.125q-0.859375 0.8125 -2.28125 0.8125q-1.421875 0 -2.296875 -0.8125q-0.875 -0.828125 -0.875 -2.125zm22.160156 26.609375l0 -17.0l-3.15625 0l0 -4.140625l3.15625 0l0 -1.796875q0 -3.546875 2.03125 -5.5q2.046875 -1.96875 5.71875 -1.96875q1.171875 0 2.875 0.390625l-0.0625 4.375q-0.703125 -0.1875 -1.71875 -0.1875q-3.1875 0 -3.1875 3.0l0 1.6875l4.203125 0l0 4.140625l-4.203125 0l0 17.0l-5.65625 0zm11.9140625 -10.765625q0 -3.140625 1.203125 -5.59375q1.21875 -2.46875 3.484375 -3.8125q2.28125 -1.359375 5.28125 -1.359375q4.28125 0 6.984375 2.625q2.703125 2.609375 3.015625 7.109375l0.046875 1.4375q0 4.875 -2.71875 7.8125q-2.71875 2.9375 -7.296875 2.9375q-4.5625 0 -7.28125 -2.921875q-2.71875 -2.9375 -2.71875 -7.984375l0 -0.25zm5.640625 0.40625q0 3.015625 1.125 4.609375q1.140625 1.59375 3.25 1.59375q2.046875 0 3.203125 -1.578125q1.15625 -1.578125 1.15625 -5.03125q0 -2.953125 -1.15625 -4.5625q-1.15625 -1.625 -3.25 -1.625q-2.0625 0 -3.203125 1.609375q-1.125 1.609375 -1.125 4.984375zm16.976562 -0.359375q0 -4.953125 2.203125 -7.875q2.21875 -2.9375 6.078125 -2.9375q3.078125 0 5.09375 2.3125l0 -10.78125l5.65625 0l0 30.0l-5.09375 0l-0.265625 -2.25q-2.109375 2.640625 -5.4375 2.640625q-3.734375 0 -5.984375 -2.9375q-2.25 -2.9375 -2.25 -8.171875zm5.640625 0.40625q0 2.96875 1.03125 4.546875q1.03125 1.578125 3.015625 1.578125q2.609375 0 3.6875 -2.203125l0 -8.34375q-1.0625 -2.203125 -3.65625 -2.203125q-4.078125 0 -4.078125 6.625zm29.648438 -5.53125q-1.15625 -0.15625 -2.03125 -0.15625q-3.203125 0 -4.203125 2.171875l0 13.828125l-5.640625 0l0 -21.140625l5.328125 0l0.15625 2.53125q1.703125 -2.921875 4.703125 -2.921875q0.9375 0 1.765625 0.265625l-0.078125 5.421875zm12.433594 16.234375q-4.640625 0 -7.5625 -2.84375q-2.921875 -2.859375 -2.921875 -7.609375l0 -0.546875q0 -3.1875 1.234375 -5.6875q1.234375 -2.515625 3.484375 -3.875q2.25 -1.359375 5.140625 -1.359375q4.34375 0 6.828125 2.734375q2.5 2.734375 2.5 7.765625l0 2.296875l-13.46875 0q0.28125 2.078125 1.65625 3.328125q1.375 1.25 3.484375 1.25q3.265625 0 5.09375 -2.375l2.78125 3.109375q-1.265625 1.796875 -3.4375 2.8125q-2.171875 1.0 -4.8125 1.0zm-0.640625 -17.34375q-1.671875 0 -2.71875 1.140625q-1.046875 1.125 -1.34375 3.234375l7.859375 0l0 -0.453125q-0.046875 -1.875 -1.03125 -2.890625q-0.96875 -1.03125 -2.765625 -1.03125zm21.628906 6.1875q0 -3.140625 1.203125 -5.59375q1.21875 -2.46875 3.484375 -3.8125q2.28125 -1.359375 5.28125 -1.359375q4.28125 0 6.984375 2.625q2.703125 2.609375 3.015625 7.109375l0.046875 1.4375q0 4.875 -2.71875 7.8125q-2.71875 2.9375 -7.296875 2.9375q-4.5625 0 -7.28125 -2.921875q-2.71875 -2.9375 -2.71875 -7.984375l0 -0.25zm5.640625 0.40625q0 3.015625 1.125 4.609375q1.140625 1.59375 3.25 1.59375q2.046875 0 3.203125 -1.578125q1.15625 -1.578125 1.15625 -5.03125q0 -2.953125 -1.15625 -4.5625q-1.15625 -1.625 -3.25 -1.625q-2.0625 0 -3.203125 1.609375q-1.125 1.609375 -1.125 4.984375zm29.289062 4.515625q0 -1.03125 -1.03125 -1.625q-1.015625 -0.59375 -3.28125 -1.0625q-7.53125 -1.59375 -7.53125 -6.40625q0 -2.8125 2.328125 -4.703125q2.328125 -1.890625 6.109375 -1.890625q4.015625 0 6.421875 1.90625q2.421875 1.890625 2.421875 4.921875l-5.640625 0q0 -1.21875 -0.78125 -2.0q-0.78125 -0.796875 -2.453125 -0.796875q-1.421875 0 -2.203125 0.640625q-0.78125 0.640625 -0.78125 1.640625q0 0.9375 0.890625 1.515625q0.890625 0.578125 3.0 1.0q2.109375 0.421875 3.546875 0.9375q4.484375 1.640625 4.484375 5.6875q0 2.890625 -2.484375 4.6875q-2.484375 1.78125 -6.40625 1.78125q-2.65625 0 -4.71875 -0.9375q-2.0625 -0.953125 -3.234375 -2.609375q-1.171875 -1.65625 -1.171875 -3.5625l5.359375 0q0.078125 1.5 1.109375 2.3125q1.03125 0.796875 2.765625 0.796875q1.625 0 2.453125 -0.609375q0.828125 -0.625 0.828125 -1.625zm14.863281 -2.890625l-4.6875 0l-0.65625 -19.703125l6.015625 0l-0.671875 19.703125zm-2.34375 3.09375q1.4375 0 2.296875 0.84375q0.875 0.828125 0.875 2.140625q0 1.28125 -0.875 2.125q-0.859375 0.84375 -2.296875 0.84375q-1.40625 0 -2.28125 -0.84375q-0.859375 -0.84375 -0.859375 -2.125q0 -1.296875 0.859375 -2.140625q0.875 -0.84375 2.28125 -0.84375z" fill-rule="nonzero"></path><path fill="#000000" d="m179.87651 202.17165l-5.859375 0l0 -28.4375l5.859375 0l0 28.4375zm14.152344 -10.71875q0 -4.953125 2.203125 -7.875q2.21875 -2.9375 6.078125 -2.9375q3.078125 0 5.09375 2.3125l0 -10.78125l5.65625 0l0 30.0l-5.09375 0l-0.265625 -2.25q-2.109375 2.640625 -5.4375 2.640625q-3.734375 0 -5.984375 -2.9375q-2.25 -2.9375 -2.25 -8.171875zm5.640625 0.40625q0 2.96875 1.03125 4.546875q1.03125 1.578125 3.015625 1.578125q2.609375 0 3.6875 -2.203125l0 -8.34375q-1.0625 -2.203125 -3.65625 -2.203125q-4.078125 0 -4.078125 6.625zm30.023438 10.3125q-0.390625 -0.765625 -0.578125 -1.890625q-2.046875 2.28125 -5.328125 2.28125q-3.109375 0 -5.15625 -1.796875q-2.03125 -1.796875 -2.03125 -4.53125q0 -3.359375 2.484375 -5.15625q2.5 -1.796875 7.203125 -1.8125l2.59375 0l0 -1.21875q0 -1.46875 -0.75 -2.34375q-0.75 -0.875 -2.375 -0.875q-1.421875 0 -2.234375 0.6875q-0.8125 0.671875 -0.8125 1.875l-5.640625 0q0 -1.84375 1.125 -3.40625q1.140625 -1.5625 3.203125 -2.453125q2.078125 -0.890625 4.65625 -0.890625q3.90625 0 6.203125 1.96875q2.296875 1.96875 2.296875 5.515625l0 9.15625q0.015625 3.015625 0.84375 4.5625l0 0.328125l-5.703125 0zm-4.671875 -3.921875q1.25 0 2.296875 -0.5625q1.0625 -0.5625 1.5625 -1.5l0 -3.625l-2.109375 0q-4.234375 0 -4.5 2.921875l-0.03125 0.34375q0 1.046875 0.734375 1.734375q0.75 0.6875 2.046875 0.6875zm13.0390625 -6.796875q0 -4.875 2.3125 -7.84375q2.328125 -2.96875 6.25 -2.96875q3.46875 0 5.40625 2.390625l0.234375 -2.0l5.1249847 0l0 20.4375q0 2.78125 -1.265625 4.828125q-1.2656097 2.046875 -3.5468597 3.125q-2.28125 1.078125 -5.34375 1.078125q-2.328125 0 -4.546875 -0.9375q-2.203125 -0.921875 -3.328125 -2.390625l2.5 -3.4375q2.109375 2.359375 5.109375 2.359375q2.25 0 3.5 -1.203125q1.25 -1.1875 1.25 -3.40625l0 -1.125q-1.953125 2.203125 -5.140625 2.203125q-3.796875 0 -6.15625 -2.96875q-2.359375 -2.984375 -2.359375 -7.90625l0 -0.234375zm5.65625 0.40625q0 2.875 1.140625 4.5q1.15625 1.625 3.171875 1.625q2.578125 0 3.6875 -1.921875l0 -8.890625q-1.125 -1.9375 -3.65625 -1.9375q-2.03125 0 -3.1875 1.671875q-1.15625 1.65625 -1.15625 4.953125zm33.46483 -8.515625q2.25 -2.703125 5.65625 -2.703125q6.875 0 6.96875 8.0l0 13.53125l-5.640625 0l0 -13.375q0 -1.828125 -0.78125 -2.6875q-0.78125 -0.875 -2.609375 -0.875q-2.46875 0 -3.59375 1.921875l0 15.015625l-5.640625 0l0 -30.0l5.640625 0l0 11.171875zm29.132812 18.828125q-0.390625 -0.765625 -0.578125 -1.890625q-2.046875 2.28125 -5.328125 2.28125q-3.109375 0 -5.15625 -1.796875q-2.03125 -1.796875 -2.03125 -4.53125q0 -3.359375 2.484375 -5.15625q2.5 -1.796875 7.203125 -1.8125l2.59375 0l0 -1.21875q0 -1.46875 -0.75 -2.34375q-0.75 -0.875 -2.375 -0.875q-1.421875 0 -2.234375 0.6875q-0.8125 0.671875 -0.8125 1.875l-5.640625 0q0 -1.84375 1.125 -3.40625q1.140625 -1.5625 3.203125 -2.453125q2.078125 -0.890625 4.65625 -0.890625q3.90625 0 6.203125 1.96875q2.296875 1.96875 2.296875 5.515625l0 9.15625q0.015625 3.015625 0.84375 4.5625l0 0.328125l-5.703125 0zm-4.671875 -3.921875q1.25 0 2.296875 -0.5625q1.0625 -0.5625 1.5625 -1.5l0 -3.625l-2.109375 0q-4.234375 0 -4.5 2.921875l-0.03125 0.34375q0 1.046875 0.734375 1.734375q0.75 0.6875 2.046875 0.6875zm25.742188 -11.921875q-1.15625 -0.15625 -2.03125 -0.15625q-3.203125 0 -4.203125 2.171875l0 13.828125l-5.640625 0l0 -21.140625l5.328125 0l0.15625 2.53125q1.703125 -2.921875 4.703125 -2.921875q0.9375 0 1.765625 0.265625l-0.078125 5.421875zm20.582031 8.953125l3.921875 -14.25l5.90625 0l-7.125 21.140625l-5.390625 0l-7.140625 -21.140625l5.90625 0l3.921875 14.25zm18.261719 6.890625l-5.65625 0l0 -21.140625l5.65625 0l0 21.140625zm-6.0 -26.609375q0 -1.265625 0.84375 -2.078125q0.859375 -0.828125 2.328125 -0.828125q1.4375 0 2.296875 0.828125q0.859375 0.8125 0.859375 2.078125q0 1.296875 -0.875 2.125q-0.859375 0.8125 -2.28125 0.8125q-1.421875 0 -2.296875 -0.8125q-0.875 -0.828125 -0.875 -2.125zm32.05078 20.765625q0 -1.03125 -1.03125 -1.625q-1.015625 -0.59375 -3.28125 -1.0625q-7.53125 -1.59375 -7.53125 -6.40625q0 -2.8125 2.328125 -4.703125q2.328125 -1.890625 6.109375 -1.890625q4.015625 0 6.421875 1.90625q2.421875 1.890625 2.421875 4.921875l-5.640625 0q0 -1.21875 -0.78125 -2.0q-0.78125 -0.796875 -2.453125 -0.796875q-1.421875 0 -2.203125 0.640625q-0.78125 0.640625 -0.78125 1.640625q0 0.9375 0.890625 1.515625q0.890625 0.578125 3.0 1.0q2.109375 0.421875 3.546875 0.9375q4.484375 1.640625 4.484375 5.6875q0 2.890625 -2.484375 4.6875q-2.484375 1.78125 -6.40625 1.78125q-2.65625 0 -4.71875 -0.9375q-2.0625 -0.953125 -3.234375 -2.609375q-1.171875 -1.65625 -1.171875 -3.5625l5.359375 0q0.078125 1.5 1.109375 2.3125q1.03125 0.796875 2.765625 0.796875q1.625 0 2.453125 -0.609375q0.828125 -0.625 0.828125 -1.625zm28.144531 -4.53125q0 4.890625 -2.21875 7.828125q-2.203125 2.9375 -5.984375 2.9375q-3.203125 0 -5.171875 -2.234375l0 9.96875l-5.640625 0l0 -29.265625l5.234375 0l0.1875 2.078125q2.0625 -2.46875 5.359375 -2.46875q3.90625 0 6.0625 2.890625q2.171875 2.890625 2.171875 7.96875l0 0.296875zm-5.640625 -0.40625q0 -2.953125 -1.046875 -4.546875q-1.046875 -1.609375 -3.03125 -1.609375q-2.65625 0 -3.65625 2.03125l0 8.65625q1.03125 2.09375 3.6875 2.09375q4.046875 0 4.046875 -6.625zm15.097656 10.78125l-5.65625 0l0 -21.140625l5.65625 0l0 21.140625zm-6.0 -26.609375q0 -1.265625 0.84375 -2.078125q0.859375 -0.828125 2.328125 -0.828125q1.4375 0 2.296875 0.828125q0.859375 0.8125 0.859375 2.078125q0 1.296875 -0.875 2.125q-0.859375 0.8125 -2.28125 0.8125q-1.421875 0 -2.296875 -0.8125q-0.875 -0.828125 -0.875 -2.125zm22.089844 20.765625q0 -1.03125 -1.03125 -1.625q-1.015625 -0.59375 -3.28125 -1.0625q-7.53125 -1.59375 -7.53125 -6.40625q0 -2.8125 2.328125 -4.703125q2.328125 -1.890625 6.109375 -1.890625q4.015625 0 6.421875 1.90625q2.421875 1.890625 2.421875 4.921875l-5.640625 0q0 -1.21875 -0.78125 -2.0q-0.78125 -0.796875 -2.453125 -0.796875q-1.421875 0 -2.203125 0.640625q-0.78125 0.640625 -0.78125 1.640625q0 0.9375 0.890625 1.515625q0.890625 0.578125 3.0 1.0q2.109375 0.421875 3.546875 0.9375q4.484375 1.640625 4.484375 5.6875q0 2.890625 -2.484375 4.6875q-2.484375 1.78125 -6.40625 1.78125q-2.65625 0 -4.71875 -0.9375q-2.0625 -0.953125 -3.234375 -2.609375q-1.171875 -1.65625 -1.171875 -3.5625l5.359375 0q0.078125 1.5 1.109375 2.3125q1.03125 0.796875 2.765625 0.796875q1.625 0 2.453125 -0.609375q0.828125 -0.625 0.828125 -1.625zm15.878906 -20.484375l0 5.1875l3.625 0l0 4.140625l-3.625 0l0 10.546875q0 1.171875 0.453125 1.6875q0.453125 0.5 1.71875 0.5q0.9375 0 1.65625 -0.125l0 4.265625q-1.65625 0.515625 -3.40625 0.515625q-5.9375 0 -6.0625 -6.0l0 -11.390625l-3.078125 0l0 -4.140625l3.078125 0l0 -5.1875l5.640625 0z" fill-rule="nonzero"></path><path fill="#000000" d="m261.1265 434.7029q0 -1.65625 -1.171875 -2.546875q-1.171875 -0.890625 -4.2187347 -1.875q-3.046875 -0.984375 -4.8125 -1.9375q-4.84375 -2.625 -4.84375 -7.046875q0 -2.3125 1.296875 -4.109375q1.296875 -1.8125 3.71875 -2.828125q2.4375 -1.015625 5.4687347 -1.015625q3.046875 0 5.421875 1.109375q2.390625 1.09375 3.703125 3.109375q1.328125 2.015625 1.328125 4.5625l-5.859375 0q0 -1.953125 -1.234375 -3.03125q-1.234375 -1.078125 -3.453125 -1.078125q-2.1562347 0 -3.3437347 0.90625q-1.1875 0.90625 -1.1875 2.390625q0 1.390625 1.390625 2.328125q1.390625 0.9375 4.1093597 1.75q5.0 1.5 7.28125 3.734375q2.296875 2.21875 2.296875 5.546875q0 3.6875 -2.796875 5.796875q-2.796875 2.09375 -7.515625 2.09375q-3.2812347 0 -5.9843597 -1.203125q-2.6875 -1.203125 -4.109375 -3.28125q-1.421875 -2.09375 -1.421875 -4.859375l5.890625 0q0 4.71875 5.6249847 4.71875q2.078125 0 3.25 -0.84375q1.171875 -0.859375 1.171875 -2.390625zm17.152344 -1.015625l-2.03125 2.03125l0 6.453125l-5.640625 0l0 -30.0l5.640625 0l0 16.625l1.09375 -1.40625l5.40625 -6.359375l6.78125 0l-7.640625 8.8125l8.3125 12.328125l-6.484375 0l-5.4375 -8.484375zm12.8203125 -2.28125q0 -3.140625 1.203125 -5.59375q1.21875 -2.46875 3.484375 -3.8125q2.28125 -1.359375 5.28125 -1.359375q4.28125 0 6.984375 2.625q2.703125 2.609375 3.015625 7.109375l0.046875 1.4375q0 4.875 -2.71875 7.8125q-2.71875 2.9375 -7.296875 2.9375q-4.5625 0 -7.28125 -2.921875q-2.71875 -2.9375 -2.71875 -7.984375l0 -0.25zm5.640625 0.40625q0 3.015625 1.125 4.609375q1.140625 1.59375 3.25 1.59375q2.046875 0 3.203125 -1.578125q1.15625 -1.578125 1.15625 -5.03125q0 -2.953125 -1.15625 -4.5625q-1.15625 -1.625 -3.25 -1.625q-2.0625 0 -3.203125 1.609375q-1.125 1.609375 -1.125 4.984375zm16.976562 -0.359375q0 -4.953125 2.203125 -7.875q2.21875 -2.9375 6.078125 -2.9375q3.078125 0 5.09375 2.3125l0 -10.78125l5.65625 0l0 30.0l-5.09375 0l-0.265625 -2.25q-2.109375 2.640625 -5.4375 2.640625q-3.734375 0 -5.984375 -2.9375q-2.25 -2.9375 -2.25 -8.171875zm5.640625 0.40625q0 2.96875 1.03125 4.546875q1.03125 1.578125 3.015625 1.578125q2.609375 0 3.6875 -2.203125l0 -8.34375q-1.0625 -2.203125 -3.65625 -2.203125q-4.078125 0 -4.078125 6.625zm16.898438 -0.40625q0 -4.953125 2.203125 -7.875q2.21875 -2.9375 6.078125 -2.9375q3.078125 0 5.09375 2.3125l0 -10.78125l5.65625 0l0 30.0l-5.09375 0l-0.265625 -2.25q-2.109375 2.640625 -5.4375 2.640625q-3.734375 0 -5.984375 -2.9375q-2.25 -2.9375 -2.25 -8.171875zm5.640625 0.40625q0 2.96875 1.03125 4.546875q1.03125 1.578125 3.015625 1.578125q2.609375 0 3.6875 -2.203125l0 -8.34375q-1.0625 -2.203125 -3.65625 -2.203125q-4.078125 0 -4.078125 6.625zm27.492188 10.703125q-4.640625 0 -7.5625 -2.84375q-2.921875 -2.859375 -2.921875 -7.609375l0 -0.546875q0 -3.1875 1.234375 -5.6875q1.234375 -2.515625 3.484375 -3.875q2.25 -1.359375 5.140625 -1.359375q4.34375 0 6.828125 2.734375q2.5 2.734375 2.5 7.765625l0 2.296875l-13.46875 0q0.28125 2.078125 1.65625 3.328125q1.375 1.25 3.484375 1.25q3.265625 0 5.09375 -2.375l2.78125 3.109375q-1.265625 1.796875 -3.4375 2.8125q-2.171875 1.0 -4.8125 1.0zm-0.640625 -17.34375q-1.671875 0 -2.71875 1.140625q-1.046875 1.125 -1.34375 3.234375l7.859375 0l0 -0.453125q-0.046875 -1.875 -1.03125 -2.890625q-0.96875 -1.03125 -2.765625 -1.03125zm24.417969 1.109375q-1.15625 -0.15625 -2.03125 -0.15625q-3.203125 0 -4.203125 2.171875l0 13.828125l-5.640625 0l0 -21.140625l5.328125 0l0.15625 2.53125q1.703125 -2.921875 4.703125 -2.921875q0.9375 0 1.765625 0.265625l-0.078125 5.421875z" fill-rule="nonzero"></path><path fill="#e06666" d="m244.08055 681.59064l0 0c0 -121.83417 98.76613 -220.60028 220.6003 -220.60028l0 0c58.506836 0 114.61737 23.24173 155.98798 64.612305c41.370544 41.370605 64.612305 97.48114 64.612305 155.98798l0 0c0 121.83417 -98.76611 220.60028 -220.60028 220.60028l0 0c-121.83417 0 -220.6003 -98.76611 -220.6003 -220.60028z" fill-rule="nonzero"></path><path stroke="#000000" stroke-width="2.0" stroke-linejoin="round" stroke-linecap="butt" d="m244.08055 681.59064l0 0c0 -121.83417 98.76613 -220.60028 220.6003 -220.60028l0 0c58.506836 0 114.61737 23.24173 155.98798 64.612305c41.370544 41.370605 64.612305 97.48114 64.612305 155.98798l0 0c0 121.83417 -98.76611 220.60028 -220.60028 220.60028l0 0c-121.83417 0 -220.6003 -98.76611 -220.6003 -220.60028z" fill-rule="nonzero"></path><path fill="#ffffff" d="m477.75555 605.7664l0 0c0 -22.715149 18.414307 -41.129456 41.129456 -41.129456l0 0c10.908203 0 21.369629 4.333252 29.082947 12.046509c7.713257 7.713318 12.046509 18.174744 12.046509 29.082947l0 0c0 22.715149 -18.414246 41.129456 -41.129456 41.129456l0 0c-22.715149 0 -41.129456 -18.414307 -41.129456 -41.129456z" fill-rule="nonzero"></path><path stroke="#000000" stroke-width="2.0" stroke-linejoin="round" stroke-linecap="butt" d="m477.75555 605.7664l0 0c0 -22.715149 18.414307 -41.129456 41.129456 -41.129456l0 0c10.908203 0 21.369629 4.333252 29.082947 12.046509c7.713257 7.713318 12.046509 18.174744 12.046509 29.082947l0 0c0 22.715149 -18.414246 41.129456 -41.129456 41.129456l0 0c-22.715149 0 -41.129456 -18.414307 -41.129456 -41.129456z" fill-rule="nonzero"></path><path fill="#000000" d="m494.24872 624.3922l0 0c0 -9.0841675 7.3641663 -16.448364 16.448334 -16.448364l0 0c4.3623962 0 8.546051 1.7329712 11.630768 4.817627c3.0846558 3.0846558 4.817566 7.2683716 4.817566 11.630737l0 0c0 9.0841675 -7.3641357 16.448303 -16.448334 16.448303l0 0c-9.0841675 0 -16.448334 -7.3641357 -16.448334 -16.448303z" fill-rule="nonzero"></path><path stroke="#000000" stroke-width="2.0" stroke-linejoin="round" stroke-linecap="butt" d="m494.24872 624.3922l0 0c0 -9.0841675 7.3641663 -16.448364 16.448334 -16.448364l0 0c4.3623962 0 8.546051 1.7329712 11.630768 4.817627c3.0846558 3.0846558 4.817566 7.2683716 4.817566 11.630737l0 0c0 9.0841675 -7.3641357 16.448303 -16.448334 16.448303l0 0c-9.0841675 0 -16.448334 -7.3641357 -16.448334 -16.448303z" fill-rule="nonzero"></path><path fill="#ffffff" d="m360.45844 588.3051l0 0c0 -22.715149 18.414276 -41.129456 41.129456 -41.129456l0 0c10.908203 0 21.36966 4.333313 29.082916 12.04657c7.713257 7.713257 12.046539 18.174683 12.046539 29.082886l0 0c0 22.71521 -18.414276 41.129456 -41.129456 41.129456l0 0c-22.71518 0 -41.129456 -18.414246 -41.129456 -41.129456z" fill-rule="nonzero"></path><path stroke="#000000" stroke-width="2.0" stroke-linejoin="round" stroke-linecap="butt" d="m360.45844 588.3051l0 0c0 -22.715149 18.414276 -41.129456 41.129456 -41.129456l0 0c10.908203 0 21.36966 4.333313 29.082916 12.04657c7.713257 7.713257 12.046539 18.174683 12.046539 29.082886l0 0c0 22.71521 -18.414276 41.129456 -41.129456 41.129456l0 0c-22.71518 0 -41.129456 -18.414246 -41.129456 -41.129456z" fill-rule="nonzero"></path><path fill="#000000" d="m380.17328 606.706l0 0c0 -9.0841675 7.364197 -16.448364 16.448364 -16.448364l0 0c4.3623657 0 8.546051 1.7329712 11.630737 4.817627c3.0846558 3.0846558 4.8175964 7.2683716 4.8175964 11.630737l0 0c0 9.0841675 -7.3641663 16.448364 -16.448334 16.448364l0 0c-9.0841675 0 -16.448364 -7.364197 -16.448364 -16.448364z" fill-rule="nonzero"></path><path stroke="#000000" stroke-width="2.0" stroke-linejoin="round" stroke-linecap="butt" d="m380.17328 606.706l0 0c0 -9.0841675 7.364197 -16.448364 16.448364 -16.448364l0 0c4.3623657 0 8.546051 1.7329712 11.630737 4.817627c3.0846558 3.0846558 4.8175964 7.2683716 4.8175964 11.630737l0 0c0 9.0841675 -7.3641663 16.448364 -16.448334 16.448364l0 0c-9.0841675 0 -16.448364 -7.364197 -16.448364 -16.448364z" fill-rule="nonzero"></path></g></svg>

